<svg width="320" height="178" viewBox="0 0 320 178" fill="none" xmlns="http://www.w3.org/2000/svg" id="logo">
<g clip-path="url(#clip0_7_431)">
<path d="M292.122 27.7943C293.674 24.8622 295.3 21.9911 297.011 19.1323V19.2789C297.464 17.1144 298.221 15.0248 299.26 13.0725C299.765 12.0888 300.345 11.1453 300.995 10.2504C301.306 9.8585 301.596 9.4507 301.863 9.02863C301.863 9.02863 301.863 8.94311 301.863 9.17523C301.877 9.27725 301.924 9.3718 301.998 9.44401C302.042 9.49502 302.096 9.53657 302.157 9.56619H302.254H302.426L302.144 9.77388C301.925 9.89078 301.712 10.0214 301.509 10.1648C299.749 11.3866 298.062 12.6938 296.363 14.0011L291.278 17.9961C291.213 18.0421 291.138 18.0715 291.058 18.0816C289.373 18.1793 287.684 18.1793 285.998 18.0816C285.152 18.0102 284.311 17.8837 283.48 17.7029C282.637 17.5908 281.848 17.2242 281.219 16.6522C281.908 17.1166 282.712 17.3829 283.542 17.4219C284.353 17.5201 285.169 17.565 285.986 17.5563C287.648 17.5563 289.311 17.4463 290.961 17.2875L290.716 17.3852C292.346 15.9355 293.976 14.5264 295.605 13.1581C297.28 11.7775 298.954 10.4336 300.788 9.18745C301.028 9.0242 301.277 8.87333 301.533 8.73541C301.698 8.64201 301.875 8.5721 302.059 8.52772C302.179 8.49499 302.306 8.49499 302.426 8.52772H302.572C302.649 8.5653 302.719 8.61478 302.78 8.67433C302.869 8.77874 302.928 8.90543 302.951 9.04084C302.969 9.22702 302.931 9.41439 302.841 9.5784C302.56 10.0715 302.245 10.545 301.9 10.9956C300.023 13.575 298.627 16.4722 297.781 19.5477C297.785 19.5801 297.785 19.613 297.781 19.6454C295.911 22.3454 294.065 25.0943 292.122 27.7943Z" fill="#1D1D1B"/>
<path d="M254.39 111.067C253.519 112.726 252.767 114.445 252.142 116.21C251.832 117.09 251.595 117.993 251.433 118.91C251.236 119.788 251.27 120.701 251.53 121.562C253.477 122.902 255.265 124.459 256.859 126.204C257.648 127.092 258.368 128.04 259.011 129.039C259.326 129.549 259.616 130.075 259.878 130.615C260.116 131.089 260.454 131.505 260.868 131.836C261.768 132.502 262.825 132.923 263.936 133.058C265.075 133.205 266.225 133.242 267.371 133.168C269.675 132.988 271.956 132.578 274.179 131.946H274.032C276.956 129.681 279.624 127.104 281.989 124.262C283.156 122.887 284.067 121.315 284.678 119.619C284.952 118.834 285.002 117.988 284.825 117.176C284.695 116.752 284.523 116.343 284.312 115.954C284.124 115.496 283.964 115.027 283.835 114.549C283.055 110.84 282.763 107.045 282.967 103.26C283.065 99.4973 283.346 95.7588 283.786 92.0325V92.1058C283.801 88.4227 284.104 84.7464 284.69 81.1103C284.972 79.2777 285.338 77.4451 285.766 75.6736C286.162 73.8737 286.651 72.0957 287.233 70.3469C287.253 70.2874 287.287 70.2332 287.331 70.1881C288.92 68.3433 290.447 66.4252 291.902 64.4704C293.371 62.5549 294.664 60.5104 295.764 58.3618C296.013 57.8463 296.206 57.3057 296.339 56.7491C296.386 56.507 296.386 56.2581 296.339 56.0161C296.323 55.925 296.29 55.8378 296.241 55.7595L295.996 55.3563C295.387 54.2403 294.915 53.0548 294.591 51.8255C293.927 49.4442 293.409 47.0248 293.039 44.5807V44.4708C293.221 39.3035 292.365 34.1521 290.521 29.3214C289.559 26.9298 288.329 24.655 286.854 22.5408C285.368 20.4145 283.655 18.4564 281.745 16.7009C285.704 20.1155 288.834 24.3851 290.9 29.187C292.938 34.0247 293.946 39.2342 293.858 44.483C294.254 46.885 294.801 49.2598 295.495 51.5934C295.809 52.7411 296.265 53.8451 296.852 54.8798L297.097 55.2586C297.22 55.4373 297.299 55.6423 297.329 55.8572C297.403 56.2159 297.403 56.5859 297.329 56.9446C297.197 57.5865 296.988 58.2101 296.705 58.8016C295.611 61.0397 294.296 63.1637 292.782 65.1423C291.315 67.146 289.787 69.0763 288.198 70.9578L288.296 70.7989C287.705 72.5065 287.203 74.2437 286.793 76.0035C286.389 77.775 286.023 79.5465 285.754 81.3424C285.208 84.9332 284.931 88.5595 284.923 92.1914V92.2647C284.483 95.9298 284.177 99.6683 284.055 103.37C283.841 107.053 284.1 110.748 284.825 114.366C284.941 114.782 285.084 115.19 285.253 115.587C285.476 116.031 285.66 116.493 285.803 116.968C286.029 117.982 285.97 119.04 285.632 120.022C284.972 121.846 283.986 123.535 282.723 125.007C280.291 127.895 277.535 130.494 274.509 132.753C274.462 132.789 274.408 132.814 274.35 132.826C272.055 133.43 269.704 133.798 267.334 133.926C266.138 133.991 264.938 133.933 263.753 133.754C262.523 133.6 261.355 133.124 260.367 132.374C259.875 131.971 259.482 131.462 259.218 130.883C258.962 130.37 258.717 129.845 258.412 129.356C257.816 128.368 257.137 127.432 256.383 126.558C254.861 124.801 253.147 123.219 251.274 121.843C250.972 120.909 250.942 119.909 251.188 118.959C251.386 118.033 251.651 117.122 251.983 116.235C252.662 114.458 253.467 112.731 254.39 111.067Z" fill="#1D1D1B"/>
<path d="M165.165 66.4742C167.773 64.331 170.649 62.5363 173.721 61.1352C175.227 60.4136 176.816 59.8763 178.451 59.5348C180.126 59.1359 181.872 59.1359 183.548 59.5348C185.088 60.0846 186.42 58.8262 187.447 57.6289C188.467 56.3317 189.356 54.9361 190.099 53.4628C191.606 50.5038 192.9 47.4418 193.974 44.2999C195.667 40.6893 197.688 37.2418 200.012 34.0007C202.353 30.7434 204.953 27.6792 207.785 24.8378C213.37 19.1636 220.015 14.6393 227.342 11.521C231.017 9.97006 234.854 8.83494 238.782 8.13678C242.697 7.42747 246.673 7.11231 250.65 7.19605C258.567 7.42322 266.401 8.87389 273.873 11.4965C266.341 9.21362 258.521 8.01648 250.65 7.9413C246.724 7.95598 242.81 8.36528 238.965 9.16303C235.122 9.90282 231.369 11.0496 227.769 12.5839C220.593 15.6769 214.075 20.1142 208.568 25.6563C203.008 31.1839 198.418 37.6059 194.988 44.6542C193.854 47.8318 192.481 50.9193 190.881 53.8904C190.084 55.3968 189.134 56.8174 188.046 58.1298C187.491 58.8093 186.831 59.3951 186.09 59.8646C185.694 60.1077 185.254 60.2696 184.795 60.3411C184.333 60.3773 183.869 60.3276 183.426 60.1945C181.827 59.7836 180.156 59.7376 178.537 60.0601C176.904 60.3379 175.311 60.8138 173.794 61.4773C170.728 62.7917 167.831 64.4694 165.165 66.4742Z" fill="#1D1D1B"/>
<path d="M190.979 38.7166L191.456 37.5926C191.463 37.5587 191.477 37.5268 191.498 37.4993C191.519 37.4718 191.546 37.4493 191.577 37.4334C191.608 37.4176 191.642 37.4088 191.676 37.4078C191.711 37.4068 191.745 37.4135 191.777 37.4275C191.809 37.4414 191.837 37.4623 191.859 37.4885C191.882 37.5148 191.898 37.5457 191.907 37.5791C191.916 37.6125 191.918 37.6475 191.912 37.6815C191.906 37.7156 191.892 37.7478 191.871 37.7758L191.321 38.851C191.298 38.8926 191.26 38.9242 191.215 38.94C191.17 38.9557 191.121 38.9545 191.077 38.9365C191.039 38.916 191.008 38.8832 190.99 38.8433C190.973 38.8035 190.969 38.7589 190.979 38.7166Z" fill="#1D1D1B"/>
<path d="M194.34 32.1314L194.964 31.0807C195.03 30.9748 195.134 30.8989 195.255 30.8692C195.376 30.8395 195.504 30.8584 195.612 30.9219C195.717 30.9853 195.792 31.0877 195.822 31.2068C195.852 31.3258 195.833 31.4518 195.771 31.5572L195.086 32.559C195.022 32.653 194.923 32.7182 194.811 32.741C194.7 32.7638 194.583 32.7423 194.487 32.6812C194.402 32.6218 194.34 32.5339 194.313 32.4332C194.286 32.3325 194.296 32.2256 194.34 32.1314Z" fill="#1D1D1B"/>
<path d="M198.313 25.9618L199.046 24.9722C199.1 24.9 199.167 24.8391 199.245 24.7929C199.322 24.7468 199.408 24.7163 199.497 24.7033C199.586 24.6902 199.677 24.6949 199.764 24.7169C199.851 24.7389 199.933 24.7779 200.006 24.8317C200.078 24.8854 200.139 24.9528 200.185 25.0301C200.231 25.1074 200.262 25.193 200.275 25.2821C200.288 25.3711 200.283 25.4619 200.261 25.5492C200.239 25.6364 200.2 25.7185 200.146 25.7907L199.364 26.7192C199.259 26.8553 199.104 26.944 198.933 26.9658C198.762 26.9875 198.59 26.9406 198.453 26.8353C198.317 26.73 198.229 26.5749 198.207 26.4042C198.185 26.2335 198.232 26.0612 198.337 25.9251L198.313 25.9618Z" fill="#1D1D1B"/>
<path d="M203.801 19.2911L204.644 18.3992C204.715 18.2828 204.811 18.1835 204.925 18.1083C205.039 18.0331 205.168 17.984 205.303 17.9643C205.438 17.9446 205.576 17.9549 205.706 17.9945C205.837 18.0341 205.957 18.1019 206.059 18.1933C206.16 18.2846 206.24 18.3971 206.293 18.5228C206.346 18.6485 206.371 18.7844 206.365 18.9207C206.36 19.057 206.324 19.1904 206.261 19.3114C206.198 19.4325 206.109 19.5381 206.001 19.621L205.133 20.4395C204.962 20.5298 204.767 20.563 204.576 20.5342C204.385 20.5053 204.208 20.4161 204.071 20.2795C203.934 20.1428 203.845 19.966 203.816 19.775C203.787 19.5839 203.821 19.3886 203.911 19.2178L203.801 19.2911Z" fill="#1D1D1B"/>
<path d="M209.179 14.1598L210.132 13.3657C210.243 13.2726 210.371 13.2023 210.509 13.1587C210.647 13.1151 210.792 13.0991 210.936 13.1115C211.08 13.124 211.221 13.1647 211.349 13.2314C211.477 13.2981 211.591 13.3894 211.684 13.5001C211.778 13.6108 211.848 13.7387 211.892 13.8766C211.935 14.0145 211.951 14.1596 211.939 14.3037C211.926 14.4478 211.885 14.588 211.819 14.7163C211.752 14.8447 211.661 14.9586 211.55 15.0517L210.597 15.7725C210.373 15.9313 210.097 15.9987 209.825 15.9609C209.554 15.9231 209.307 15.783 209.135 15.5691C208.963 15.3553 208.88 15.084 208.901 14.8107C208.923 14.5373 209.049 14.2827 209.252 14.0987L209.179 14.1598Z" fill="#1D1D1B"/>
<path d="M215.119 9.66373L216.17 8.97957C216.308 8.88184 216.465 8.81387 216.631 8.77994C216.797 8.74602 216.968 8.74689 217.133 8.78249C217.299 8.81809 217.455 8.88766 217.592 8.98678C217.73 9.0859 217.845 9.21241 217.93 9.3583C218.029 9.49564 218.097 9.65186 218.132 9.81709C218.167 9.98232 218.167 10.153 218.133 10.3183C218.098 10.4836 218.03 10.64 217.932 10.7776C217.834 10.9151 217.709 11.0309 217.564 11.1176L216.525 11.7162C216.252 11.9025 215.917 11.9731 215.593 11.9124C215.268 11.8517 214.982 11.6647 214.795 11.3925C214.609 11.1203 214.538 10.7853 214.599 10.4611C214.66 10.1368 214.847 9.85005 215.119 9.66373Z" fill="#1D1D1B"/>
<path d="M222.758 5.3757L223.895 4.85035C224.073 4.75774 224.268 4.70237 224.468 4.6876C224.669 4.67283 224.87 4.69899 225.06 4.76446C225.25 4.82994 225.424 4.93337 225.573 5.06845C225.721 5.20353 225.841 5.36743 225.924 5.55016C226.007 5.73289 226.052 5.93062 226.056 6.13129C226.06 6.33197 226.023 6.53139 225.948 6.7174C225.872 6.90341 225.76 7.07211 225.617 7.21321C225.474 7.35432 225.304 7.46488 225.117 7.53815H225.056L223.944 7.97797C223.592 8.12864 223.195 8.13348 222.84 7.99143C222.484 7.84938 222.2 7.57207 222.049 7.2205C221.898 6.86894 221.894 6.47192 222.036 6.11679C222.178 5.76166 222.455 5.4775 222.807 5.32683L222.758 5.3757Z" fill="#1D1D1B"/>
<path d="M229.786 2.61447L231.008 2.23574C231.219 2.16996 231.44 2.14622 231.659 2.16587C231.879 2.18553 232.092 2.2482 232.287 2.3503C232.483 2.45241 232.656 2.59194 232.797 2.76095C232.938 2.92995 233.045 3.12511 233.111 3.33529C233.177 3.54546 233.2 3.76654 233.181 3.98589C233.161 4.20524 233.098 4.41857 232.996 4.6137C232.894 4.80883 232.754 4.98194 232.585 5.12314C232.416 5.26434 232.221 5.37088 232.011 5.43666H231.913L230.764 5.71765C230.369 5.7946 229.959 5.72345 229.613 5.51777C229.267 5.3121 229.009 4.98631 228.889 4.60257C228.768 4.21884 228.792 3.80404 228.958 3.43734C229.123 3.07063 229.418 2.77771 229.786 2.61447Z" fill="#1D1D1B"/>
<path d="M237.12 0.757418L238.342 0.549725C238.833 0.472114 239.335 0.591688 239.738 0.882361C240.141 1.17303 240.412 1.61122 240.493 2.10132C240.533 2.34287 240.525 2.58997 240.47 2.82839C240.414 3.06682 240.311 3.29186 240.168 3.49057C240.025 3.68928 239.844 3.85774 239.636 3.98624C239.427 4.11474 239.195 4.20076 238.953 4.23934H238.843L237.682 4.38594C237.441 4.42044 237.196 4.40719 236.96 4.34697C236.725 4.28674 236.503 4.18071 236.309 4.03493C236.114 3.88915 235.95 3.70647 235.826 3.49733C235.702 3.28819 235.62 3.05668 235.586 2.81603C235.551 2.57537 235.565 2.33027 235.625 2.09473C235.685 1.85919 235.791 1.63782 235.937 1.44326C236.083 1.24869 236.266 1.08475 236.475 0.960784C236.684 0.836819 236.916 0.755261 237.156 0.720766L237.12 0.757418Z" fill="#1D1D1B"/>
<path d="M245.847 -6.41532e-05H247.069C247.519 0.0519344 247.934 0.267376 248.235 0.605275C248.536 0.943175 248.703 1.37995 248.703 1.83252C248.703 2.28509 248.536 2.72187 248.235 3.05977C247.934 3.39767 247.519 3.61311 247.069 3.66511H245.847C245.582 3.71508 245.31 3.70705 245.049 3.64159C244.788 3.57613 244.545 3.4548 244.335 3.28599C244.126 3.11718 243.956 2.90491 243.836 2.66387C243.717 2.42282 243.652 2.15876 243.644 1.88992C243.637 1.62109 243.689 1.35391 243.795 1.10686C243.901 0.859799 244.06 0.638764 244.26 0.459034C244.46 0.279304 244.697 0.145167 244.954 0.0659001C245.211 -0.0133673 245.482 -0.0358741 245.749 -6.41532e-05H245.847Z" fill="#1D1D1B"/>
<path d="M253.352 0.549805L254.574 0.733064C254.984 0.778427 255.359 0.984759 255.617 1.30667C255.875 1.62858 255.994 2.0397 255.949 2.44959C255.903 2.85948 255.697 3.23456 255.375 3.49231C255.053 3.75007 254.642 3.86939 254.232 3.82403H253.009C252.601 3.77409 252.226 3.57096 251.961 3.25567C251.697 2.94039 251.561 2.53644 251.583 2.12542C251.605 1.7144 251.782 1.32693 252.078 1.04128C252.375 0.755626 252.769 0.593075 253.18 0.586456L253.352 0.549805Z" fill="#1D1D1B"/>
<path d="M260.685 2.02811L261.907 2.35797C262.165 2.44424 262.382 2.62154 262.517 2.85648C262.653 3.09142 262.698 3.3678 262.644 3.63359C262.589 3.89938 262.44 4.13623 262.223 4.29957C262.007 4.46291 261.738 4.54146 261.467 4.52043L260.245 4.37382C259.974 4.28624 259.741 4.10654 259.589 3.86583C259.436 3.62513 259.372 3.33859 259.408 3.05582C259.445 2.77305 259.579 2.51186 259.787 2.31748C259.996 2.1231 260.266 2.00777 260.551 1.99146L260.685 2.02811Z" fill="#1D1D1B"/>
<path d="M268.899 4.88701L270.023 5.38792C270.088 5.41726 270.138 5.47098 270.164 5.53736C270.189 5.60374 270.187 5.67739 270.158 5.74222C270.132 5.79653 270.09 5.84125 270.037 5.86983C269.984 5.89841 269.924 5.90935 269.864 5.90105L268.642 5.69335C268.532 5.67553 268.433 5.61468 268.368 5.52417C268.303 5.43367 268.276 5.32094 268.294 5.21077C268.312 5.1006 268.372 5.00203 268.463 4.93673C268.554 4.87143 268.666 4.84476 268.777 4.86258L268.899 4.88701Z" fill="#1D1D1B"/>
<path d="M268.654 16.7864C270.164 15.905 271.458 14.6989 272.443 13.2556C272.938 12.5306 273.387 11.7757 273.788 10.9954C274.251 10.2108 274.792 9.47412 275.401 8.79631C276.626 7.48511 277.964 6.28327 279.398 5.20443C280.816 4.12366 282.289 3.11645 283.81 2.18677C283.947 2.10446 284.111 2.07884 284.266 2.11536C284.421 2.15189 284.556 2.24767 284.642 2.38225C284.717 2.49765 284.748 2.6368 284.727 2.7732L284.104 8.22209C283.884 10.0547 283.7 11.8018 283.554 13.6954C283.331 14.646 282.937 15.5483 282.393 16.3588C281.89 17.147 281.326 17.8946 280.706 18.5945C279.45 19.9622 277.99 21.1284 276.379 22.052C277.833 20.9524 279.129 19.6574 280.229 18.2036C280.789 17.502 281.288 16.754 281.72 15.9678C282.163 15.2141 282.466 14.3861 282.613 13.5244C282.613 11.7773 282.808 9.85921 282.943 8.06327L283.566 2.66324L284.483 3.26189C283.004 4.14153 281.537 5.13113 280.131 6.14516C278.722 7.1619 277.383 8.2721 276.122 9.46826C275.511 10.0576 274.962 10.7086 274.485 11.4108C274.024 12.1796 273.51 12.9146 272.944 13.6099C271.792 14.9998 270.32 16.0897 268.654 16.7864Z" fill="#1D1D1B"/>
<path d="M233.013 57.3113C232.982 59.2939 233.225 61.2714 233.734 63.1878C234.186 65.1018 234.833 66.9645 235.665 68.7466C237.302 72.317 239.438 75.6367 242.009 78.606L243.977 80.7806C244.307 81.1594 244.686 81.5748 245.016 82.0024C245.346 82.43 245.615 82.8453 245.871 83.2974C246.873 85.0625 247.692 86.9251 248.316 88.8562C249.597 92.6461 250.538 96.5425 251.127 100.499C250.589 98.5812 250.039 96.6631 249.416 94.7816C248.792 92.9002 248.194 91.0065 247.436 89.1739C246.736 87.3453 245.881 85.5797 244.881 83.896C244.637 83.4806 244.343 83.1141 244.087 82.6743C243.83 82.2345 243.476 81.9779 243.146 81.6114L241.117 79.4123C238.456 76.356 236.321 72.8799 234.798 69.1254C233.202 65.4047 232.587 61.3371 233.013 57.3113Z" fill="#1D1D1B"/>
<path d="M219.751 142.148C219.48 140.719 219.386 139.262 219.47 137.811C219.517 136.359 219.644 134.911 219.849 133.473C220.303 130.584 220.944 127.728 221.768 124.921C222.538 122.111 223.589 119.399 224.628 116.687L226.303 112.667C226.83 111.35 227.271 109.999 227.623 108.624C229.212 103.089 230.459 97.4325 231.815 91.8248L233.832 83.3827L234.883 79.1677L235.409 77.0663L235.702 76.0157L235.849 75.4903L235.934 75.2338V75.0994V75.2215L235.873 75.4903L235.763 76.0279L235.568 77.0908L235.164 79.2288L234.394 83.4926L232.707 92.0447C231.546 97.7135 230.263 103.37 228.772 108.978C228.386 110.408 227.908 111.812 227.342 113.181L225.631 117.139C224.555 119.815 223.528 122.502 222.636 125.239C221.718 127.966 220.975 130.749 220.411 133.571C219.777 136.383 219.555 139.272 219.751 142.148Z" fill="#1D1D1B"/>
<path d="M231.29 113.071C231.888 115.734 232.426 118.422 233.001 121.11C233.575 123.798 233.783 126.534 234.223 129.259C234.443 130.615 234.455 131.995 234.565 133.364L234.797 137.493V141.623C234.814 143.001 234.757 144.379 234.626 145.752L234.223 149.869L233.453 153.938L233.27 154.952L233.001 155.953L232.463 157.957C232.105 159.296 231.66 160.61 231.131 161.891C230.125 164.47 228.833 166.929 227.281 169.221L226.058 170.871L224.677 172.41C223.722 173.405 222.641 174.272 221.463 174.988C223.623 173.314 225.44 171.24 226.816 168.879C228.237 166.569 229.401 164.111 230.287 161.549C230.703 160.254 231.18 158.995 231.51 157.664L232.011 155.697L232.267 154.707L232.426 153.705L233.099 149.686L233.441 145.63C233.598 144.279 233.676 142.921 233.673 141.561L233.771 137.481C233.624 134.769 233.551 132.044 233.367 129.32C233.184 126.595 232.903 123.883 232.536 121.171C232.17 118.459 231.62 115.783 231.29 113.071Z" fill="#1D1D1B"/>
<path id="logo-text" d="M22.16 115.412H2L2.08 114.932C3.41333 114.932 4.38667 114.679 5 114.172C5.66667 113.612 6 111.012 6 106.372V96.4521C6 93.5988 5.90667 91.6521 5.72 90.6121C5.56 89.5454 5.32 88.8788 5 88.6121C4.38667 88.1054 3.41333 87.8521 2.08 87.8521L2 87.4121H20.68V93.1721L20.2 93.0921C20.2 91.3054 19.2533 90.0654 17.36 89.3721C15.4933 88.6788 12.6267 88.3321 8.76 88.3321V100.932C11.32 100.932 13.16 100.799 14.28 100.532C15.4 100.265 16.12 99.8654 16.44 99.3321C16.76 98.7721 16.92 97.8521 16.92 96.5721L17.36 96.4921V106.212L16.92 106.132C16.92 104.825 16.76 103.905 16.44 103.372C16.12 102.839 15.4 102.452 14.28 102.212C13.16 101.945 11.32 101.812 8.76 101.812V106.972C8.76 109.799 8.85333 111.679 9.04 112.612C9.25333 113.545 9.70667 114.172 10.4 114.492C17.92 114.492 21.68 112.892 21.68 109.692L22.16 109.612V115.412ZM39.9684 87.0521C44.2618 87.0521 47.6884 88.3721 50.2484 91.0121C52.8351 93.6254 54.1284 96.9188 54.1284 100.892C54.1284 104.839 53.1018 108.159 51.0484 110.852C49.0218 113.519 46.2218 115.105 42.6484 115.612C43.4484 115.799 44.8751 116.359 46.9284 117.292C49.0084 118.225 50.9018 118.692 52.6084 118.692C54.3151 118.692 55.9551 118.159 57.5284 117.092L58.0084 117.612C57.1018 118.599 56.1151 119.372 55.0484 119.932C54.0084 120.519 52.7684 120.812 51.3284 120.812C49.9151 120.812 48.4218 120.452 46.8484 119.732C45.3018 119.012 43.7151 118.292 42.0884 117.572C40.4618 116.852 39.1151 116.492 38.0484 116.492C36.9818 116.492 36.0084 116.639 35.1284 116.932L34.9284 116.132C35.4351 115.892 36.2751 115.705 37.4484 115.572C33.9551 114.959 31.1818 113.332 29.1284 110.692C27.0751 108.025 26.0484 104.732 26.0484 100.812C26.0484 96.8654 27.2884 93.5854 29.7684 90.9721C32.2751 88.3588 35.6751 87.0521 39.9684 87.0521ZM40.2084 114.892C43.6218 114.892 46.2084 113.665 47.9684 111.212C49.7551 108.732 50.6484 105.479 50.6484 101.452C50.6484 97.4254 49.7151 94.1721 47.8484 91.6921C45.9818 89.2121 43.3418 87.9721 39.9284 87.9721C36.5418 87.9721 33.9551 89.1988 32.1684 91.6521C30.4084 94.1054 29.5284 97.3588 29.5284 101.412C29.5284 105.439 30.4618 108.692 32.3284 111.172C34.1951 113.652 36.8218 114.892 40.2084 114.892ZM82.0269 96.4921V104.332C82.0269 106.119 81.8002 107.705 81.3469 109.092C80.9202 110.479 80.3602 111.585 79.6669 112.412C78.9735 113.239 78.1469 113.919 77.1869 114.452C75.5602 115.359 73.6935 115.812 71.5869 115.812C64.3602 115.812 60.7469 112.119 60.7469 104.732V96.4521C60.7469 93.5988 60.6535 91.6521 60.4669 90.6121C60.3069 89.5721 60.0669 88.9188 59.7469 88.6521C59.1335 88.1454 58.1602 87.8921 56.8269 87.8921L56.7469 87.4121H67.5069L67.4269 87.8921C66.7869 87.8921 66.2669 87.9188 65.8669 87.9721C65.4935 88.0254 65.1469 88.1721 64.8269 88.4121C64.5069 88.6521 64.2669 88.9321 64.1069 89.2521C63.9735 89.5454 63.8535 90.0521 63.7469 90.7721C63.6135 91.7054 63.5469 93.5988 63.5469 96.4521V104.932C63.5469 108.345 64.3069 110.825 65.8269 112.372C67.3735 113.892 69.4402 114.652 72.0269 114.652C74.6135 114.652 76.7602 113.825 78.4669 112.172C80.1735 110.492 81.0269 107.905 81.0269 104.412V96.4921C81.0269 93.8254 80.9069 91.9054 80.6669 90.7321C80.4269 89.5588 80.0269 88.7988 79.4669 88.4521C78.9335 88.0788 78.0135 87.8921 76.7069 87.8921L76.6269 87.4121H86.4669L86.3869 87.8921C85.0802 87.8921 84.1469 88.0788 83.5869 88.4521C83.0535 88.7988 82.6535 89.5588 82.3869 90.7321C82.1469 91.9054 82.0269 93.8254 82.0269 96.4921ZM96.0266 96.4521V106.372C96.0266 109.225 96.1066 111.172 96.2666 112.212C96.4532 113.252 96.7066 113.905 97.0266 114.172C97.6399 114.679 98.6132 114.932 99.9466 114.932L100.027 115.412H89.2266L89.3066 114.932C89.9732 114.932 90.4932 114.905 90.8666 114.852C91.2399 114.799 91.5866 114.652 91.9066 114.412C92.2532 114.172 92.4932 113.905 92.6266 113.612C92.7866 113.292 92.9199 112.772 93.0266 112.052C93.1599 111.119 93.2266 109.225 93.2266 106.372V96.4521C93.2266 93.6788 93.1466 91.7454 92.9866 90.6521C92.8266 89.5588 92.5866 88.8788 92.2666 88.6121C91.6266 88.1054 90.6399 87.8521 89.3066 87.8521L89.2266 87.4121H100.027L99.9466 87.8521C98.6132 87.8521 97.6399 88.1054 97.0266 88.6121C96.3599 89.1721 96.0266 91.7854 96.0266 96.4521ZM129.111 96.4121V115.612H127.871L109.031 91.8121V106.292C109.031 108.959 109.151 110.879 109.391 112.052C109.631 113.225 110.031 113.999 110.591 114.372C111.151 114.745 112.071 114.932 113.351 114.932L113.431 115.412H103.591L103.671 114.932C104.951 114.932 105.871 114.745 106.431 114.372C106.991 113.999 107.391 113.225 107.631 112.052C107.898 110.879 108.031 108.959 108.031 106.292V96.4121C108.031 93.7454 107.898 91.8388 107.631 90.6921C107.391 89.5188 106.991 88.7588 106.431 88.4121C105.898 88.0388 104.978 87.8521 103.671 87.8521L103.591 87.4121H109.031L128.111 111.212V96.4121C128.111 93.7721 127.978 91.8654 127.711 90.6921C127.471 89.5188 127.071 88.7588 126.511 88.4121C125.951 88.0388 125.018 87.8521 123.711 87.8521L123.631 87.4121H133.551L133.471 87.8521C132.165 87.8521 131.231 88.0388 130.671 88.4121C130.111 88.7588 129.711 89.5188 129.471 90.6921C129.231 91.8654 129.111 93.7721 129.111 96.4121ZM157.277 115.412H137.117L137.197 114.932C138.531 114.932 139.504 114.679 140.117 114.172C140.784 113.612 141.117 111.012 141.117 106.372V96.4521C141.117 93.5988 141.024 91.6521 140.837 90.6121C140.677 89.5454 140.437 88.8788 140.117 88.6121C139.504 88.1054 138.531 87.8521 137.197 87.8521L137.117 87.4121H155.797V93.1721L155.317 93.0921C155.317 91.3054 154.371 90.0654 152.477 89.3721C150.611 88.6788 147.744 88.3321 143.877 88.3321V100.932C146.437 100.932 148.277 100.799 149.397 100.532C150.517 100.265 151.237 99.8654 151.557 99.3321C151.877 98.7721 152.037 97.8521 152.037 96.5721L152.477 96.4921V106.212L152.037 106.132C152.037 104.825 151.877 103.905 151.557 103.372C151.237 102.839 150.517 102.452 149.397 102.212C148.277 101.945 146.437 101.812 143.877 101.812V106.972C143.877 109.799 143.971 111.679 144.157 112.612C144.371 113.545 144.824 114.172 145.517 114.492C153.037 114.492 156.797 112.892 156.797 109.692L157.277 109.612V115.412ZM10.7422 133.721H2.72852V141.412H2.14844V125.771H11.8379V126.352H2.72852V133.119H10.7422V133.721ZM18.3799 141.627C17.4417 141.627 16.5788 141.376 15.791 140.875C15.0104 140.367 14.3981 139.672 13.9541 138.791C13.5101 137.91 13.2881 136.933 13.2881 135.858V135.375C13.2881 134.301 13.5029 133.316 13.9326 132.421C14.3623 131.526 14.9531 130.827 15.7051 130.326C16.457 129.825 17.277 129.574 18.165 129.574C19.4613 129.574 20.5212 130.036 21.3447 130.96C22.1683 131.884 22.5801 133.098 22.5801 134.602V135.214H13.8682V135.848C13.8682 136.793 14.0651 137.67 14.459 138.479C14.86 139.282 15.4079 139.912 16.1025 140.37C16.8044 140.828 17.5635 141.058 18.3799 141.058C19.1605 141.058 19.8229 140.929 20.3672 140.671C20.9186 140.406 21.4056 140.001 21.8281 139.457L22.2363 139.747C21.3698 141 20.0843 141.627 18.3799 141.627ZM18.165 130.154C17.0335 130.154 16.0739 130.577 15.2861 131.422C14.4984 132.26 14.0365 133.33 13.9004 134.634H22V134.494C22 133.706 21.8317 132.976 21.4951 132.303C21.1657 131.622 20.7074 131.096 20.1201 130.724C19.54 130.344 18.8883 130.154 18.165 130.154ZM29.4658 141.627C28.5277 141.627 27.6647 141.376 26.877 140.875C26.0964 140.367 25.484 139.672 25.04 138.791C24.596 137.91 24.374 136.933 24.374 135.858V135.375C24.374 134.301 24.5889 133.316 25.0186 132.421C25.4482 131.526 26.0391 130.827 26.791 130.326C27.543 129.825 28.363 129.574 29.251 129.574C30.5472 129.574 31.6071 130.036 32.4307 130.96C33.2542 131.884 33.666 133.098 33.666 134.602V135.214H24.9541V135.848C24.9541 136.793 25.151 137.67 25.5449 138.479C25.946 139.282 26.4938 139.912 27.1885 140.37C27.8903 140.828 28.6494 141.058 29.4658 141.058C30.2464 141.058 30.9089 140.929 31.4531 140.671C32.0046 140.406 32.4915 140.001 32.9141 139.457L33.3223 139.747C32.4557 141 31.1702 141.627 29.4658 141.627ZM29.251 130.154C28.1195 130.154 27.1598 130.577 26.3721 131.422C25.5843 132.26 25.1224 133.33 24.9863 134.634H33.0859V134.494C33.0859 133.706 32.9176 132.976 32.5811 132.303C32.2516 131.622 31.7933 131.096 31.2061 130.724C30.626 130.344 29.9743 130.154 29.251 130.154ZM35.8359 135.482C35.8359 133.628 36.2262 132.181 37.0068 131.143C37.7874 130.097 38.8581 129.574 40.2188 129.574C41.0924 129.574 41.8623 129.771 42.5283 130.165C43.2015 130.559 43.7458 131.146 44.1611 131.927V124.912H44.7412V141.412H44.1611V139.554C43.7673 140.213 43.2266 140.725 42.5391 141.09C41.8516 141.448 41.071 141.627 40.1973 141.627C38.8509 141.627 37.7874 141.093 37.0068 140.026C36.2262 138.959 35.8359 137.495 35.8359 135.633V135.482ZM36.4375 135.708C36.4375 137.355 36.7633 138.659 37.415 139.618C38.0667 140.571 38.9906 141.047 40.1865 141.047C41.1462 141.047 41.9661 140.836 42.6465 140.413C43.3268 139.983 43.8317 139.357 44.1611 138.533V133.087C43.4951 131.132 42.1774 130.154 40.208 130.154C39.0192 130.154 38.0918 130.623 37.4258 131.562C36.7669 132.5 36.4375 133.882 36.4375 135.708ZM62.4121 133.656H54.5703V140.832H63.5078V141.412H53.9902V125.771H63.5078V126.352H54.5703V133.076H62.4121V133.656ZM73.3799 138.565C73.3799 137.155 72.1768 136.195 69.7705 135.687C68.3239 135.379 67.3177 134.985 66.752 134.505C66.1862 134.018 65.9033 133.352 65.9033 132.507C65.9033 131.655 66.2614 130.953 66.9775 130.401C67.7008 129.85 68.639 129.574 69.792 129.574C71.0452 129.574 72.0514 129.875 72.8105 130.477C73.5697 131.071 73.9492 131.877 73.9492 132.894H73.3584C73.3584 132.113 73.029 131.461 72.3701 130.938C71.7113 130.416 70.8519 130.154 69.792 130.154C68.7751 130.154 67.9694 130.376 67.375 130.82C66.7806 131.264 66.4834 131.819 66.4834 132.485C66.4834 133.008 66.5944 133.42 66.8164 133.721C67.0384 134.014 67.4001 134.283 67.9014 134.526C68.4027 134.763 69.1331 134.992 70.0928 135.214C71.0524 135.436 71.8115 135.697 72.3701 135.998C72.9287 136.299 73.3333 136.657 73.584 137.072C73.8346 137.48 73.96 137.982 73.96 138.576C73.96 139.493 73.584 140.23 72.832 140.789C72.0801 141.348 71.0954 141.627 69.8779 141.627C68.5745 141.627 67.5218 141.333 66.7197 140.746C65.9248 140.152 65.5273 139.389 65.5273 138.458H66.1074C66.1647 139.274 66.5228 139.912 67.1816 140.37C67.8477 140.821 68.7464 141.047 69.8779 141.047C70.9163 141.047 71.7578 140.807 72.4023 140.327C73.054 139.84 73.3799 139.253 73.3799 138.565ZM78.4717 126.652V129.789H81.1143V130.38H78.4717V138.63C78.4717 139.453 78.6042 140.062 78.8691 140.456C79.1413 140.85 79.5924 141.047 80.2227 141.047C80.5378 141.047 80.9209 141.015 81.3721 140.95L81.4688 141.498C81.2324 141.584 80.8278 141.627 80.2549 141.627C79.4098 141.627 78.8047 141.394 78.4395 140.929C78.0742 140.456 77.888 139.715 77.8809 138.705V130.38H75.7324V129.789H77.8809V126.652H78.4717ZM84.8525 141.412H84.2725V129.789H84.8525V141.412ZM83.9717 126.158C83.9717 125.993 84.029 125.854 84.1436 125.739C84.2581 125.618 84.3978 125.557 84.5625 125.557C84.7272 125.557 84.8669 125.618 84.9814 125.739C85.1032 125.854 85.1641 125.993 85.1641 126.158C85.1641 126.323 85.1032 126.463 84.9814 126.577C84.8669 126.692 84.7272 126.749 84.5625 126.749C84.3978 126.749 84.2581 126.692 84.1436 126.577C84.029 126.463 83.9717 126.323 83.9717 126.158ZM96.9805 141.412H96.4004V133.603C96.3932 132.435 96.1354 131.569 95.627 131.003C95.1257 130.43 94.3236 130.144 93.2207 130.144C91.946 130.144 90.904 130.706 90.0947 131.83C89.6149 132.503 89.2962 133.248 89.1387 134.064V141.412H88.5479V129.789H89.1387V132.539C89.5326 131.594 90.0947 130.863 90.8252 130.348C91.5557 129.832 92.3649 129.574 93.2529 129.574C94.2269 129.574 95.0218 129.789 95.6377 130.219C96.2607 130.648 96.6689 131.35 96.8623 132.324C97.2061 131.486 97.7646 130.82 98.5381 130.326C99.3115 129.825 100.178 129.574 101.138 129.574C102.391 129.574 103.322 129.929 103.931 130.638C104.547 131.347 104.858 132.41 104.865 133.828V141.412H104.285V133.871C104.285 132.596 104.027 131.655 103.512 131.046C103.003 130.43 102.201 130.129 101.105 130.144C99.6947 130.165 98.5775 130.727 97.7539 131.83C97.2812 132.467 97.0234 133.083 96.9805 133.678V141.412ZM115.897 141.412C115.754 140.918 115.683 140.209 115.683 139.285C115.224 140.03 114.598 140.606 113.803 141.015C113.008 141.423 112.109 141.627 111.106 141.627C110.032 141.627 109.166 141.337 108.507 140.757C107.855 140.17 107.529 139.407 107.529 138.469C107.529 137.402 108.009 136.549 108.969 135.912C109.936 135.268 111.217 134.938 112.814 134.924H115.683V133.227C115.683 132.253 115.375 131.497 114.759 130.96C114.15 130.423 113.276 130.154 112.138 130.154C111.078 130.154 110.193 130.426 109.484 130.971C108.775 131.515 108.421 132.188 108.421 132.99L107.841 132.969C107.841 132.023 108.256 131.221 109.087 130.562C109.918 129.904 110.935 129.574 112.138 129.574C113.391 129.574 114.386 129.889 115.124 130.52C115.862 131.143 116.241 132.023 116.263 133.162V138.716C116.263 139.991 116.363 140.857 116.563 141.315V141.412H115.897ZM111.106 141.058C112.195 141.058 113.13 140.814 113.91 140.327C114.698 139.84 115.289 139.156 115.683 138.275V135.515H112.997C111.336 135.515 110.064 135.844 109.184 136.503C108.467 137.04 108.109 137.71 108.109 138.512C108.109 139.221 108.392 139.822 108.958 140.316C109.524 140.811 110.24 141.058 111.106 141.058ZM121.312 126.652V129.789H123.954V130.38H121.312V138.63C121.312 139.453 121.444 140.062 121.709 140.456C121.981 140.85 122.432 141.047 123.062 141.047C123.378 141.047 123.761 141.015 124.212 140.95L124.309 141.498C124.072 141.584 123.668 141.627 123.095 141.627C122.25 141.627 121.645 141.394 121.279 140.929C120.914 140.456 120.728 139.715 120.721 138.705V130.38H118.572V129.789H120.721V126.652H121.312ZM127.692 141.412H127.112V129.789H127.692V141.412ZM126.812 126.158C126.812 125.993 126.869 125.854 126.983 125.739C127.098 125.618 127.238 125.557 127.402 125.557C127.567 125.557 127.707 125.618 127.821 125.739C127.943 125.854 128.004 125.993 128.004 126.158C128.004 126.323 127.943 126.463 127.821 126.577C127.707 126.692 127.567 126.749 127.402 126.749C127.238 126.749 127.098 126.692 126.983 126.577C126.869 126.463 126.812 126.323 126.812 126.158ZM130.625 135.375C130.625 134.265 130.836 133.27 131.259 132.389C131.688 131.501 132.29 130.81 133.063 130.315C133.844 129.821 134.725 129.574 135.706 129.574C136.68 129.574 137.554 129.814 138.327 130.294C139.101 130.774 139.702 131.454 140.132 132.335C140.569 133.216 140.791 134.208 140.798 135.311V135.826C140.798 136.943 140.587 137.942 140.164 138.823C139.742 139.704 139.14 140.392 138.359 140.886C137.586 141.38 136.709 141.627 135.728 141.627C134.746 141.627 133.866 141.383 133.085 140.896C132.312 140.41 131.71 139.729 131.28 138.855C130.851 137.975 130.632 136.986 130.625 135.891V135.375ZM131.205 135.826C131.205 136.793 131.395 137.681 131.774 138.49C132.161 139.292 132.695 139.919 133.375 140.37C134.062 140.821 134.847 141.047 135.728 141.047C137.052 141.047 138.13 140.549 138.961 139.554C139.799 138.558 140.218 137.276 140.218 135.708V135.375C140.218 134.423 140.024 133.542 139.638 132.732C139.251 131.923 138.714 131.293 138.026 130.842C137.346 130.383 136.573 130.154 135.706 130.154C134.381 130.154 133.3 130.659 132.462 131.669C131.624 132.679 131.205 133.95 131.205 135.482V135.826ZM144.203 132.496C144.583 131.594 145.141 130.881 145.879 130.358C146.617 129.836 147.433 129.574 148.328 129.574C149.574 129.574 150.498 129.929 151.1 130.638C151.708 131.34 152.016 132.403 152.023 133.828V141.412H151.443V133.807C151.436 132.561 151.182 131.64 150.681 131.046C150.179 130.444 149.384 130.144 148.296 130.144C147.293 130.144 146.423 130.502 145.686 131.218C144.955 131.927 144.461 132.843 144.203 133.968V141.412H143.623V129.789H144.203V132.496Z" fill="#1D1D1B"/>
</g>
<defs>
<clipPath id="clip0_7_431">
<rect width="303" height="175" fill="white"/>
</clipPath>
</defs>
</svg>
